<svg width="181" height="180" viewBox="0 0 181 180" fill="none" xmlns="http://www.w3.org/2000/svg">
  <path d="M149.643 137.44L127.788 149.077L123.929 142.053L123.993 141.947L132.593 137.536H132.754C133.077 137.44 134.152 137.387 135.603 137.261C138.534 137.084 141.427 136.518 144.203 135.579C145.859 134.933 147.729 134.849 148.901 136.16C149.231 136.531 149.483 136.963 149.643 137.43V137.44Z" fill="#FAFAF9"/>
  <path d="M110.106 151.408C110.43 151.482 111.372 151.941 112.679 152.475C115.271 153.709 118.017 154.574 120.84 155.046C122.555 155.249 124.208 156.06 124.595 157.778C124.686 158.265 124.686 158.764 124.595 159.251C124.599 159.286 124.599 159.322 124.595 159.358H100.418V151.28H109.834H110.022L110.106 151.408Z" fill="#FAFAF9" stroke="#FAFAF9" stroke-width="0.86" stroke-miterlimit="10"/>
  <path d="M80.4687 76.1663C80.8309 75.9053 81.1338 75.572 81.3579 75.1877C81.5819 74.8033 81.7222 74.3767 81.7695 73.9352C81.7805 73.7686 81.7555 73.6015 81.6961 73.4452C81.6368 73.2889 81.5445 73.1469 81.4254 73.0288C81.3063 72.9107 81.1632 72.8192 81.0055 72.7603C80.8479 72.7015 80.6795 72.6767 80.5114 72.6876C80.4602 72.8125 80.392 72.9299 80.3088 73.0365L80.4048 71.1227L80.618 67.2528C80.6361 67.1422 80.6315 67.029 80.6046 66.9202C80.5777 66.8113 80.5289 66.709 80.4613 66.6192C80.3936 66.5294 80.3085 66.4541 80.2108 66.3976C80.1132 66.3412 80.0051 66.3048 79.893 66.2906H79.6371L80.2982 61.7969H85.224L85.3412 60.4012H79.0827L78.1978 66.3117H75.2124C75.1743 65.7967 74.9878 65.3034 74.6751 64.8904C74.3624 64.4774 73.9367 64.1622 73.4486 63.9822C72.9605 63.8022 72.4305 63.7649 71.9217 63.875C71.4129 63.985 70.9467 64.2376 70.5785 64.6028C70.2102 64.968 69.9555 65.4303 69.8446 65.9349C69.7336 66.4395 69.7711 66.9651 69.9527 67.4491C70.1342 67.9332 70.452 68.3553 70.8685 68.6654C71.2849 68.9755 71.7824 69.1605 72.3017 69.1983L72.387 70.8266L72.4723 72.4444H72.3124C71.5872 72.5163 70.9104 72.8382 70.4 73.3541C69.8895 73.87 69.5777 74.5471 69.519 75.2675L69.6256 80.6177L69.3484 80.7129C64.9063 82.2464 60.3357 83.3858 55.6905 84.1175C52.0228 84.6145 49.3999 84.4242 48.2271 83.4408C43.4186 79.4758 51.8522 55.3893 55.8291 51.5088C58.132 49.2461 62.8446 48.2733 68.6234 47.1631C68.8211 46.429 69.294 45.7974 69.9454 45.3973H70.0094C73.5469 44.6373 77.2032 44.5978 80.7566 45.281L81.1511 45.4185C81.534 45.5459 81.8725 45.7784 82.1274 46.0892C82.3822 46.3999 82.5428 46.776 82.5905 47.1737C82.5905 47.1737 91.216 48.1253 92.7513 49.9017C96.6749 54.4588 100.673 59.1006 103.68 62.2938C103.893 62.5159 109.522 57.2925 111.484 52.1855H111.548C111.548 52.1855 113.681 55.3576 117.316 54.7655C117.028 55.3364 107.39 74.4005 102.816 72.7404C98.9458 71.3236 94.745 68.1938 90.2777 64.472C88.5398 62.9599 95.5127 93.9192 95.63 94.5536H91.088L75.5749 94.6382H73.24L54.6136 94.7333C54.6887 91.4174 54.9951 88.1105 55.5305 84.8365C60.2231 83.714 64.8502 82.3373 69.391 80.7129L69.6682 80.7974C70.7872 81.2903 71.9511 81.6763 73.144 81.95L73.2719 84.0647C73.2627 84.2721 73.3337 84.4752 73.4704 84.6325C73.6072 84.7897 73.7994 84.8892 74.0076 84.9106H79.168C79.3763 84.8892 79.5684 84.7897 79.7052 84.6325C79.8419 84.4752 79.9129 84.2721 79.9037 84.0647L80.0316 81.7173C81.1298 81.2944 81.7695 80.66 81.7695 80.1736C81.7816 80.0224 81.7586 79.8704 81.7023 79.7293C81.6459 79.5882 81.5578 79.4618 81.4446 79.3597C81.3314 79.2576 81.1961 79.1826 81.0491 79.1404C80.9021 79.0982 80.7474 79.09 80.5967 79.1163H80.5434H80.6287C80.9407 78.9313 81.2057 78.6778 81.4035 78.3754C81.6012 78.073 81.7265 77.7296 81.7695 77.3716C81.7824 77.2133 81.7591 77.0542 81.7014 76.906C81.6438 76.7578 81.5532 76.6245 81.4364 76.5158C81.3196 76.4071 81.1797 76.3259 81.0269 76.2782C80.8742 76.2305 80.7125 76.2175 80.554 76.2403L80.4687 76.1663Z" fill="#FAFAF9"/>
  <path d="M109.969 143.202H124.663" stroke="#FAFAF9" stroke-width="0.86" stroke-miterlimit="10"/>
  <path d="M143.192 143.202H149.643V152.014H32.0919V143.202H98.7605" stroke="#FAFAF9" stroke-width="0.86" stroke-miterlimit="10"/>
  <path d="M74.7041 143.202H32.0919V152.014H74.7041V143.202Z" fill="#FAFAF9"/>
  <path d="M125.525 118.967H156.255V165.967H24.7449V118.967H92.6874" stroke="#FAFAF9" stroke-width="0.86" stroke-miterlimit="10"/>
  <path d="M41.2755 125.577C42.2899 125.577 43.1123 124.755 43.1123 123.741C43.1123 122.727 42.2899 121.905 41.2755 121.905C40.2611 121.905 39.4388 122.727 39.4388 123.741C39.4388 124.755 40.2611 125.577 41.2755 125.577Z" stroke="#FAFAF9" stroke-width="0.86" stroke-miterlimit="10"/>
  <path d="M35.398 125.577C36.4124 125.577 37.2347 124.755 37.2347 123.741C37.2347 122.727 36.4124 121.905 35.398 121.905C34.3836 121.905 33.5612 122.727 33.5612 123.741C33.5612 124.755 34.3836 125.577 35.398 125.577Z" stroke="#FAFAF9" stroke-width="0.86" stroke-miterlimit="10"/>
  <path d="M29.5204 125.577C30.5348 125.577 31.3571 124.755 31.3571 123.741C31.3571 122.727 30.5348 121.905 29.5204 121.905C28.506 121.905 27.6837 122.727 27.6837 123.741C27.6837 124.755 28.506 125.577 29.5204 125.577Z" stroke="#FAFAF9" stroke-width="0.86" stroke-miterlimit="10"/>
  <path d="M131.276 33.7809C130.892 35.3984 128.188 48.4857 127.602 51.4057" stroke="#FAFAF9" stroke-width="0.86" stroke-linecap="round" stroke-linejoin="round"/>
  <path d="M126.867 51.4057C126.018 51.0712 125.055 50.8438 124.042 50.7384C123.029 50.633 121.989 50.652 120.99 50.7941" stroke="#FAFAF9" stroke-width="0.86" stroke-linecap="round" stroke-linejoin="round"/>
  <path d="M112.911 49.924C107.357 48.1418 101.888 51.4057 101.888 51.4057C102.345 46.225 102.771 33.004 102.771 33.004C111.698 29.0563 116.815 34.4856 117.39 35.1488V35.2109C119.731 31.4705 127.306 31.2633 130.541 34.0194" stroke="#FAFAF9" stroke-width="0.86" stroke-linecap="round" stroke-linejoin="round"/>
  <path d="M78.3776 66.093H73.2093C73.1022 66.1076 72.9989 66.1449 72.9054 66.2025C72.812 66.2602 72.7303 66.3372 72.665 66.429C72.5998 66.5208 72.5524 66.6255 72.5255 66.737C72.4987 66.8486 72.4929 66.9647 72.5087 67.0787L72.6102 69.05L72.6914 70.718L72.7727 72.3752V73.35V73.4367" stroke="#FAFAF9" stroke-width="0.86" stroke-miterlimit="10"/>
  <path d="M80.3793 72.7023L80.44 70.8273L80.5748 67.0357C80.5862 66.9273 80.5833 66.8165 80.5663 66.7099C80.5493 66.6032 80.5185 66.5029 80.4757 66.415C80.4329 66.327 80.3791 66.2532 80.3174 66.1979C80.2557 66.1425 80.1874 66.1069 80.1165 66.093H79.8469" stroke="#FAFAF9" stroke-width="0.86" stroke-miterlimit="10"/>
  <path d="M73.2347 81.7904L73.3712 83.6917C73.3613 83.8782 73.437 84.0608 73.5829 84.2022C73.7288 84.3435 73.9337 84.433 74.1559 84.4522H79.6604C79.8826 84.433 80.0876 84.3435 80.2334 84.2022C80.3793 84.0608 80.455 83.8782 80.4451 83.6917L80.5816 81.5813V81.5147" stroke="#FAFAF9" stroke-width="0.86" stroke-miterlimit="10"/>
  <path d="M72.5 73.3522V73.4435C73.4304 75.9975 79.0778 74.7661 80.3761 73.0786C80.4605 72.9636 80.5297 72.837 80.5816 72.7023" stroke="#FAFAF9" stroke-width="0.86" stroke-miterlimit="10"/>
  <path d="M80.6927 72.707C80.872 72.6924 81.0527 72.7121 81.2224 72.7649C81.3922 72.8176 81.5468 72.902 81.6757 73.0122C81.8046 73.1225 81.9047 73.2561 81.969 73.4036C82.0333 73.5511 82.0603 73.7091 82.0482 73.8667C82.0012 74.2755 81.8573 74.6711 81.6258 75.0283C81.3943 75.3854 81.0803 75.6961 80.7039 75.9405C79.9651 76.4392 79.1115 76.7906 78.2022 76.9705C77.293 77.1505 76.35 77.1545 75.4388 76.9823" stroke="#FAFAF9" stroke-width="0.86" stroke-miterlimit="10" stroke-linecap="round"/>
  <path d="M80.7277 76.3876C80.8985 76.3627 81.0735 76.3724 81.2393 76.416C81.4052 76.4597 81.5576 76.536 81.6848 76.6392C81.8121 76.7425 81.9108 76.8699 81.9736 77.0119C82.0364 77.1538 82.0615 77.3064 82.0471 77.4582C81.9962 77.8005 81.8557 78.1278 81.6366 78.4143C81.4175 78.7007 81.1258 78.9386 80.7845 79.1091H80.6936C79.1117 79.9308 77.2469 80.2255 75.4388 79.9395" stroke="#FAFAF9" stroke-width="0.86" stroke-miterlimit="10" stroke-linecap="round"/>
  <path d="M80.7852 79.3246H80.8403C80.991 79.3023 81.1456 79.3088 81.293 79.3439C81.4404 79.3789 81.577 79.4415 81.6927 79.5271C81.8085 79.6127 81.9007 79.7193 81.9626 79.8391C82.0245 79.959 82.0546 80.0891 82.0507 80.22C82.0507 80.6819 81.4125 81.2474 80.257 81.6622C77.9707 82.3623 75.4872 82.438 73.1485 81.8789C71.9173 81.635 70.7161 81.2909 69.5612 80.8516" stroke="#FAFAF9" stroke-width="0.86" stroke-miterlimit="10" stroke-linecap="round"/>
  <path d="M72.5 70.6665C74.6783 70.0012 75.2556 71.5087 77.4121 71.8961C77.8668 71.9699 78.3338 71.987 78.7954 71.9467H78.9479C79.2998 71.8819 79.6288 71.7577 79.9112 71.583C80.1937 71.4082 80.4227 71.1873 80.5816 70.936" stroke="#FAFAF9" stroke-width="0.86" stroke-miterlimit="10" stroke-linecap="round"/>
  <path d="M79.1094 71.9679L79.9978 66.0409L80.6615 61.6139L85.6068 61.5931L85.7245 60.2181H79.4198L78.5313 66.0409L77.6429 71.843" stroke="#FAFAF9" stroke-width="0.86" stroke-linecap="round" stroke-linejoin="round"/>
  <path d="M72.874 69.0305H72.6821C72.1902 68.9943 71.7191 68.8178 71.3247 68.5218C70.9303 68.2258 70.6293 67.8228 70.4574 67.3607C70.2855 66.8987 70.2499 66.397 70.355 65.9153C70.4601 65.4337 70.7013 64.9923 71.0501 64.6437C71.3988 64.2951 71.8404 64.054 72.3222 63.949C72.8041 63.844 73.306 63.8795 73.7683 64.0513C74.2305 64.2231 74.6337 64.524 74.9298 64.9183C75.226 65.3125 75.4026 65.7834 75.4388 66.275C75.4388 66.3356 75.4388 66.3962 75.4388 66.4567" stroke="#FAFAF9" stroke-width="0.86" stroke-linejoin="round"/>
  <path d="M75.4388 94.7333H73.2347" stroke="#FAFAF9" stroke-width="0.86" stroke-miterlimit="10"/>
  <path d="M71.0306 22.4926C71.1715 21.6122 71.3231 20.5747 71.5506 19.5267C71.8204 17.7983 72.5398 16.1646 73.6414 14.7791C76.1546 12.1381 78.8087 13.1756 81.0295 15.4708C81.6717 16.1228 82.2586 16.8237 82.7844 17.5669C84.3651 19.8391 85.5712 22.3353 86.3593 24.9659C87.2585 28.6025 81.8311 36.7038 80.3145 37.2592C80.1369 37.3288 79.9515 37.378 79.762 37.4059C77.5196 37.7832 74.7139 35.8129 73.7822 33.8951" stroke="#FAFAF9" stroke-width="0.86" stroke-miterlimit="10" stroke-linecap="round"/>
  <path d="M70.2959 44.7964C70.2959 38.7304 70.2959 33.2167 70.2959 27.1716" stroke="#FAFAF9" stroke-width="0.86" stroke-miterlimit="10"/>
  <path d="M79.8469 37.4527L79.9053 37.7098C80.3627 40.1739 80.46 43.1845 81.3163 45.4129V45.5307" stroke="#FAFAF9" stroke-width="0.86" stroke-miterlimit="10"/>
  <path d="M71.7653 23.6166C71.5055 23.2268 71.1924 22.874 70.8347 22.5678C68.3744 20.4702 66.6735 25.1058 67.6256 26.4378C67.908 26.7499 68.2758 26.9761 68.6853 27.0895C69.0948 27.2029 69.5289 27.1987 69.9361 27.0776H70.2143C70.42 27.0316 70.618 26.9575 70.8026 26.8573" stroke="#FAFAF9" stroke-width="0.86" stroke-miterlimit="10" stroke-linecap="round"/>
  <path d="M82.9965 17.7702C83.5837 17.7702 91.911 16.1456 90.758 13.7737C90.096 12.4091 85.6868 13.7737 81.267 15.5608C77.082 17.2503 72.8863 19.3081 71.9255 19.7521L71.7653 19.8279" stroke="#FAFAF9" stroke-width="0.86" stroke-miterlimit="10"/>
  <path d="M81.3163 25.7028C82.2424 24.9521 83.2711 24.7713 84.2551 25.1864" stroke="#FAFAF9" stroke-width="0.86" stroke-miterlimit="10" stroke-linecap="round"/>
  <path d="M79.1122 25.4699C78.6708 25.1067 78.1421 24.9325 77.6099 24.9746C77.0777 25.0168 76.5723 25.273 76.1735 25.7028" stroke="#FAFAF9" stroke-width="0.86" stroke-miterlimit="10" stroke-linecap="round"/>
  <path d="M71.0306 24.2341C70.4172 24.6987 69.6368 24.9587 68.8265 24.9685" stroke="#FAFAF9" stroke-width="0.86" stroke-miterlimit="10" stroke-linecap="round"/>
  <path d="M81.7179 25.7028C81.1382 26.8001 81.7179 28.5556 81.973 29.6928C82.1005 30.4808 82.286 31.997 80.5817 31.4683" stroke="#FAFAF9" stroke-width="0.86" stroke-miterlimit="10" stroke-linecap="round"/>
  <path d="M109.235 117.499C109.137 115.22 109.018 113.475 108.856 112.084C107.589 101.235 98.2329 94.8379 75.4388 94.7333" stroke="#FAFAF9" stroke-width="0.86" stroke-miterlimit="10"/>
  <path d="M109.969 151.28V150.921C109.794 144.087 109.677 138.402 109.577 133.646C109.577 133.414 109.577 133.171 109.577 132.939C109.502 128.973 109.435 125.672 109.377 122.909C109.377 122.213 109.377 121.559 109.327 120.926C109.327 119.671 109.268 118.532 109.235 117.499" stroke="#FAFAF9" stroke-width="0.86" stroke-miterlimit="10"/>
  <path d="M93.8061 123.374C93.8061 123.309 93.8061 123.223 93.7416 123.137L93.5481 122.438C93.2579 121.437 92.8816 120.092 92.7419 119.608H70.3813C63.5227 119.382 59.6311 115.606 57.3843 110.571C55.2342 105.719 54.7827 99.6942 54.8795 94.5839C54.9496 91.2096 55.2586 87.8445 55.804 84.514C55.8793 84.0729 55.933 83.8039 55.9438 83.7178" stroke="#FAFAF9" stroke-width="0.86" stroke-miterlimit="10"/>
  <path d="M109.969 151.28H100.139C98.9808 144.663 97.6372 138.794 96.3593 133.781C95.2669 129.355 94.1746 125.593 93.268 122.6L93.0714 121.905" stroke="#FAFAF9" stroke-width="0.86" stroke-miterlimit="10"/>
  <path d="M130.541 132.186L125.628 119.438C123.781 114.668 122.222 110.637 121.923 109.94C117.138 98.1842 116.679 94.7439 92.7575 94.7333H91.3478L75.8095 94.8178H73.5241L54.8674 94.9127" stroke="#FAFAF9" stroke-width="0.86" stroke-miterlimit="10"/>
  <path d="M109.235 117.499C109.939 118.941 111.475 121.562 113.363 124.647C115.08 127.447 117.075 130.626 118.984 133.616C120.894 136.606 122.91 139.638 124.318 141.733L132.745 137.301L131.273 133.627C131.07 133.1 130.835 132.5 130.601 131.879" stroke="#FAFAF9" stroke-width="0.86" stroke-miterlimit="10"/>
  <path d="M75.4388 32.3121C75.5625 32.6283 75.7653 32.9149 76.0316 33.1499C76.2979 33.385 76.6207 33.5623 76.9753 33.6682C77.3299 33.7742 77.7068 33.806 78.0772 33.7612C78.4476 33.7164 78.8017 33.5962 79.1123 33.4098" stroke="#FAFAF9" stroke-width="0.86" stroke-miterlimit="10" stroke-linecap="round"/>
  <path d="M117.923 51.6513L118.148 51.3206C119.668 48.878 118.341 46.478 118.437 45.774C118.683 44.0994 120.353 44.6221 120.781 46.99C121 48.1035 121.047 49.2437 120.92 50.3713C120.893 51.3276 120.549 52.2481 119.944 52.9904C119.338 53.7328 118.504 54.2556 117.57 54.4779C117.281 55.0539 107.604 74.2856 103.011 72.611C99.1255 71.1817 94.9079 68.0244 90.4226 64.2698C88.6242 62.7658 95.775 94.0507 95.8927 94.7333H92.5421" stroke="#FAFAF9" stroke-width="0.86" stroke-miterlimit="10" stroke-linecap="round"/>
  <path d="M115.847 50.6713C115.627 50.6713 115.381 50.6713 115.112 50.6713" stroke="#FAFAF9" stroke-width="0.86" stroke-miterlimit="10" stroke-linecap="round"/>
  <path d="M118.01 52.1401C118.096 52.0479 118.175 51.9483 118.245 51.8423C119.367 50.0028 118.622 45.0372 117.122 44.8033C116.98 44.7838 116.835 44.8059 116.704 44.8671C114.949 45.5901 117.622 47.7593 115.847 50.9385" stroke="#FAFAF9" stroke-width="0.86" stroke-miterlimit="10" stroke-linecap="round"/>
  <path d="M115.116 51.1886C115.202 51.0627 115.28 50.9318 115.35 50.7966C115.817 49.985 115.962 49.0288 115.755 48.1165C115.659 47.5444 115.084 45.8707 114.456 45.6164C114.305 45.5495 114.137 45.5287 113.973 45.5564C113.81 45.5842 113.658 45.6594 113.538 45.7726C113.417 45.8858 113.333 46.0319 113.296 46.1926C113.258 46.3533 113.269 46.5214 113.328 46.6758C114.222 49.1335 113.754 49.9703 113.072 50.447C112.391 50.9237 111.805 50.9979 111.592 51.6123C111.538 51.7956 111.474 51.9759 111.401 52.1526C109.442 57.2692 103.821 62.5023 103.608 62.2799C100.606 59.1018 96.6139 54.4301 92.6963 49.8644C91.1633 48.0847 82.5509 47.1313 82.5509 47.1313C82.5033 46.7328 82.3429 46.356 82.0885 46.0447C81.8341 45.7334 81.496 45.5004 81.1137 45.3728L80.7305 45.2881C77.1797 44.5986 73.5252 44.6346 69.9889 45.394H69.925C69.2745 45.7948 68.8024 46.4275 68.605 47.1631C62.8563 48.2224 58.1509 49.2818 55.8301 51.517C51.8486 55.4047 43.4172 79.5365 48.229 83.509C49.4213 84.4942 52.0402 84.6849 55.681 84.187C60.3265 83.4551 64.8973 82.3136 69.3395 80.7759L69.6163 80.6806L69.5099 75.3203C69.5685 74.5986 69.8798 73.9202 70.3895 73.4033C70.8992 72.8865 71.5749 72.5639 72.299 72.4919" stroke="#FAFAF9" stroke-width="0.86" stroke-miterlimit="10" stroke-linecap="round"/>
  <path d="M118.051 35.2496L118.031 35.397L116.582 44.062" stroke="#FAFAF9" stroke-width="0.86" stroke-linecap="round" stroke-linejoin="round"/>
  <path d="M111.439 52.1401C111.439 52.1401 113.612 54.7736 117.316 54.282" stroke="#FAFAF9" stroke-width="0.86" stroke-miterlimit="10" stroke-linecap="round"/>
  <path d="M54.8674 85.1866C55.1968 85.1866 55.5369 85.0831 55.93 85.0026C60.6072 83.7816 65.219 82.2844 69.7448 80.5175L71.0306 80.046" stroke="#0C0A09" stroke-width="0.86" stroke-linejoin="round"/>
  <path d="M83.8877 27.1716C83.9852 27.1716 84.0786 27.2103 84.1475 27.2791C84.2164 27.348 84.2551 27.4414 84.2551 27.5388C84.2551 27.6361 84.2164 27.7295 84.1475 27.7984C84.0786 27.8673 83.9852 27.9059 83.8877 27.9059C83.7903 27.9059 83.6969 27.8673 83.628 27.7984C83.5591 27.7295 83.5204 27.6361 83.5204 27.5388C83.5204 27.4414 83.5591 27.348 83.628 27.2791C83.6969 27.2103 83.7903 27.1716 83.8877 27.1716Z" fill="#FAFAF9"/>
  <path d="M78.3776 27.1716C78.5229 27.1716 78.6649 27.1931 78.7858 27.2334C78.9066 27.2738 79.0007 27.3311 79.0564 27.3982C79.112 27.4653 79.1265 27.5392 79.0982 27.6104C79.0698 27.6816 78.9998 27.747 78.8971 27.7984C78.7943 27.8497 78.6634 27.8847 78.5209 27.8989C78.3784 27.913 78.2307 27.9058 78.0964 27.878C77.9622 27.8502 77.8474 27.8031 77.7667 27.7427C77.686 27.6824 77.6429 27.6114 77.6429 27.5388C77.6429 27.4414 77.7203 27.348 77.8581 27.2791C77.9959 27.2103 78.1827 27.1716 78.3776 27.1716Z" fill="#FAFAF9"/>
  <path d="M100.418 159.532V161.561H124.663V159.358H124.621H100.429H100.418V159.532Z" stroke="#FAFAF9" stroke-width="0.86" stroke-linecap="round" stroke-linejoin="round"/>
  <path d="M127.602 149.076L140.827 142.467" stroke="#0C0A09" stroke-width="0.86" stroke-miterlimit="10"/>
  <path d="M127.688 149.595L128.576 151.28L150.378 139.177L149.414 137.327L149.382 137.349L127.613 149.441H127.602L127.688 149.595Z" stroke="#FAFAF9" stroke-width="0.86" stroke-linecap="round" stroke-linejoin="round"/>
  <path d="M63.68 102.077C63.7965 106.254 61.1174 108.853 57.6336 110.085C56.2694 110.557 54.8422 110.828 53.3979 110.889" stroke="#FAFAF9" stroke-width="0.86" stroke-miterlimit="10" stroke-linecap="round"/>
  <path d="M132.343 137.548C132.659 137.453 133.714 137.4 135.137 137.272C138.012 137.094 140.849 136.526 143.573 135.581C145.197 134.932 147.031 134.847 148.181 136.166C148.504 136.539 148.751 136.973 148.908 137.442V137.538L127.819 149.077L123.929 142.196L132.343 137.548Z" stroke="#FAFAF9" stroke-width="0.86" stroke-linecap="round" stroke-linejoin="round"/>
  <path d="M71.0306 74.2391C68.5307 74.6768 59.186 76.0432 56.3367 76.3742C57.0866 71.5576 58.5043 66.8634 60.5506 62.4212" stroke="#0C0A09" stroke-width="0.86" stroke-miterlimit="10" stroke-linecap="round"/>
  <path d="M129.071 128.514H156.255" stroke="#FAFAF9" stroke-width="0.86" stroke-miterlimit="10"/>
  <path d="M109.235 128.514H115.112" stroke="#FAFAF9" stroke-width="0.86" stroke-miterlimit="10"/>
  <path d="M24.7449 128.514H95.2755" stroke="#FAFAF9" stroke-width="0.86" stroke-miterlimit="10"/>
</svg>
